<svg xmlns="http://www.w3.org/2000/svg" xmlns:xlink="http://www.w3.org/1999/xlink" id="图层_1" width="47.808" height="73.12" x="0" y="0" enable-background="new 0 0 47.808 73.12" version="1.1" viewBox="0 0 47.808 73.12" xml:space="preserve"><path fill="#888" d="M1.835,0c0.369,0,0.741,0.111,1.064,0.341l41.987,29.998c0.047,0.035,0.094,0.07,0.137,0.109	c1.771,1.538,2.785,3.766,2.785,6.112c0,2.345-1.015,4.572-2.785,6.111c-0.043,0.038-0.09,0.074-0.137,0.108L2.899,72.778	c-0.822,0.588-1.968,0.398-2.558-0.426c-0.588-0.824-0.397-1.97,0.426-2.559l41.91-29.942c0.932-0.839,1.464-2.035,1.464-3.291	c0-1.257-0.532-2.453-1.464-3.292L0.767,3.325c-0.823-0.588-1.014-1.734-0.426-2.558C0.699,0.267,1.263,0,1.835,0"/></svg>