<svg xmlns="http://www.w3.org/2000/svg" xmlns:xlink="http://www.w3.org/1999/xlink" id="图层_1" width="25.606" height="18.396" x="0" style="enable-background:new 0 0 25.606 18.396" y="0" version="1.1" viewBox="0 0 25.606 18.396" xml:space="preserve"><path style="fill:#888" d="M14.395,0.796C14.018,0.295,13.43,0,12.803,0c-0.626,0-1.215,0.295-1.591,0.796L0.397,15.215	c-0.659,0.878-0.48,2.126,0.399,2.785c0.879,0.657,2.125,0.48,2.784-0.399l6.722-8.962l-0.005,0.007l0.005-0.007l2.5-3.335	l0.006,0.008l2.493-3.307L14.395,0.796z"/><g style="opacity:.6"><g><defs><rect id="SVGID_1_" width="12.797" height="16.392" x="12.809" y="2.005"/></defs><clipPath id="SVGID_2_"><use xlink:href="#SVGID_1_" style="overflow:visible"/></clipPath><path style="clip-path:url(#SVGID_2_);fill:#888" d="M25.208,15.215L15.301,2.004l-2.492,3.309l9.216,12.289 c0.392,0.521,0.988,0.795,1.593,0.795c0.416,0,0.834-0.129,1.192-0.397C25.688,17.341,25.868,16.094,25.208,15.215"/></g></g></svg>