<svg xmlns="http://www.w3.org/2000/svg" xmlns:xlink="http://www.w3.org/1999/xlink" width="32" height="32" x="0" y="0" enable-background="new 0 0 32 32" version="1.1" viewBox="0 0 32 32" xml:space="preserve"><g id="图层_1" display="none"><title>header-search-inner</title><path d="M12.798,25.596C5.741,25.596,0,19.855,0,12.798C0,5.741,5.741,0,12.798,0c7.058,0,12.8,5.742,12.8,12.798 S19.855,25.596,12.798,25.596z M12.798,2.55C7.147,2.55,2.55,7.147,2.55,12.799c0,5.652,4.597,10.248,10.248,10.248 c5.652,0,10.249-4.597,10.249-10.248C23.047,7.148,18.449,2.55,12.798,2.55z" display="inline"/><path d="M30.71,32c-0.329,0-0.659-0.127-0.909-0.381l-9.003-9.145 c-0.493-0.502-0.487-1.309,0.015-1.803c0.5-0.494,1.309-0.486,1.803,0.014l9.004,9.146c0.494,0.501,0.486,1.31-0.014,1.803 C31.357,31.878,31.034,32,30.71,32L30.71,32z" display="inline" enable-background="new" opacity=".5"/></g><g id="图层_2"><path d="M15.484,26.35c-7.265,0-13.176-5.91-13.176-13.174S8.219,0,15.484,0c7.265,0,13.174,5.911,13.174,13.175 S22.749,26.35,15.484,26.35 M15.484,1.106c-6.655,0-12.069,5.414-12.069,12.069c0,6.654,5.414,12.069,12.069,12.069 c6.654,0,12.068-5.415,12.068-12.069C27.553,6.521,22.139,1.106,15.484,1.106"/><path d="M29.359,32c-0.155,0-0.309-0.064-0.418-0.189l-6.793-7.824c-0.2-0.231-0.176-0.579,0.055-0.78 c0.23-0.199,0.579-0.175,0.78,0.056l6.793,7.822c0.199,0.231,0.176,0.582-0.056,0.78C29.616,31.955,29.487,32,29.359,32"/></g></svg>