<svg xmlns="http://www.w3.org/2000/svg" xmlns:xlink="http://www.w3.org/1999/xlink" width="22" height="32" x="0" y="0" enable-background="new 0 0 22 32" version="1.1" viewBox="0 0 22 32" xml:space="preserve"><g id="图层_1" display="none"><title>header-arrow-left</title><path fill="#FFF" d="M3.427,16l18.25-13.687c0.568-0.426,0.683-1.232,0.257-1.799 c-0.426-0.567-1.231-0.682-1.8-0.257L0.513,14.973c-0.323,0.243-0.514,0.624-0.514,1.028s0.191,0.785,0.514,1.028l0.921,0.691 l2.13-1.617L3.427,16L3.427,16z" display="inline"/><path fill="#999" d="M21.677,29.688L3.565,16.103l-2.13,1.616 l18.699,14.024C20.365,31.916,20.637,32,20.904,32c0.392,0,0.777-0.177,1.029-0.514C22.359,30.918,22.245,30.111,21.677,29.688z" display="inline" enable-background="new" opacity=".6"/></g><g id="图层_2"><path fill="#FFF" d="M19.964,31.676c-0.158,0-0.318-0.045-0.457-0.146L1.503,18.667c-0.02-0.013-0.04-0.029-0.059-0.045 c-0.759-0.661-1.194-1.616-1.194-2.621c0-1.008,0.436-1.961,1.194-2.622c0.019-0.016,0.039-0.032,0.059-0.046L19.507,0.471 c0.352-0.252,0.845-0.171,1.098,0.183c0.251,0.353,0.169,0.844-0.183,1.097L2.45,14.589c-0.399,0.36-0.627,0.873-0.627,1.412 s0.228,1.051,0.627,1.412l17.972,12.838c0.352,0.252,0.434,0.744,0.183,1.098C20.449,31.563,20.207,31.676,19.964,31.676"/></g></svg>