<svg xmlns="http://www.w3.org/2000/svg" width="1019" height="1024" version="1.1" viewBox="0 0 1019 1024"><title/><path fill="none" stroke="#fff" stroke-linecap="round" stroke-linejoin="round" stroke-miterlimit="10" stroke-width="51.01" d="M41.177 89.505h60.846c26.26 0 48.598 19.145 52.606 45.096l131.212 528.141c5.624 36.324 36.889 63.129 73.646 63.129h411.633c25.574 0 47.813-17.501 53.825-42.337l54.666-421.345c9.36-33.899-16.158-67.391-51.319-67.391h-466.454"/><path fill="#fff" d="M471.899 575.506l31.295-93.007c0.867-2.561-0.026-5.382-2.192-6.991l-83.493-61.953c-1.824-1.361-0.884-4.262 1.399-4.287l105.535-1.039c1.021-0.013 1.918-0.674 2.24-1.639l31.728-96.527c0.712-2.184 3.798-2.184 4.515 0l31.728 96.527c0.309 0.965 1.206 1.627 2.227 1.639l93.54 0.94c4.485 0.043 6.42 5.691 2.927 8.493l-72.593 57.808c-2.047 1.627-2.858 4.36-2.030 6.841l31.295 92.926c0.73 2.171-1.738 4.021-3.618 2.704l-84.78-59.597c-0.828-0.588-1.928-0.575-2.759 0.013l-83.326 59.838c-1.875 1.33-4.373-0.519-3.631-2.704z"/><path fill="none" stroke="#fff" stroke-linecap="butt" stroke-linejoin="miter" stroke-miterlimit="10" stroke-width="51.01" d="M412.094 844.723c-24.795 0-44.873 20.093-44.873 44.886s20.080 44.886 44.873 44.886 44.873-20.080 44.873-44.886c0-24.788-20.093-44.886-44.873-44.886v0z"/><path fill="none" stroke="#fff" stroke-linecap="butt" stroke-linejoin="miter" stroke-miterlimit="10" stroke-width="51.01" d="M709.963 844.723c-24.795 0-44.886 20.093-44.886 44.886s20.080 44.886 44.886 44.886c24.788 0 44.873-20.080 44.873-44.886 0-24.788-20.093-44.886-44.873-44.886v0z"/></svg>