<?xml version="1.0" encoding="utf-8"?>
<!-- Generator: Adobe Illustrator 16.0.0, SVG Export Plug-In . SVG Version: 6.00 Build 0)  -->
<!DOCTYPE svg PUBLIC "-//W3C//DTD SVG 1.1//EN" "http://www.w3.org/Graphics/SVG/1.1/DTD/svg11.dtd">
<svg version="1.1" id="图层_2" xmlns="http://www.w3.org/2000/svg" xmlns:xlink="http://www.w3.org/1999/xlink" x="0px" y="0px"
	 width="24px" height="32px" viewBox="0 0 24 32" enable-background="new 0 0 24 32" xml:space="preserve">
<path fill="#FFFFFF" d="M12,16.271c-4.42,0-8.017-3.597-8.017-8.017c0-4.42,3.596-8.016,8.017-8.016c4.42,0,8.016,3.596,8.016,8.016
	C20.016,12.674,16.42,16.271,12,16.271 M12,1.366c-3.798,0-6.888,3.09-6.888,6.887c0,3.798,3.09,6.888,6.888,6.888
	c3.797,0,6.888-3.09,6.888-6.888C18.888,4.457,15.797,1.366,12,1.366"/>
<path fill="#FFFFFF" d="M20.132,31.724H4.131c-0.312,0-0.564-0.255-0.564-0.565c0-0.312,0.252-0.564,0.564-0.564h16.001
	c0.311,0,0.563,0.253,0.563,0.564C20.695,31.469,20.442,31.724,20.132,31.724"/>
<path fill="#FFFFFF" d="M20.304,31.638c-0.201,0-0.396-0.109-0.499-0.3c-0.147-0.275-0.043-0.616,0.231-0.763
	c1.297-0.692,2.163-1.859,2.513-3.377c0.538-2.343-0.241-5.259-2.087-7.799c-0.183-0.252-0.128-0.605,0.124-0.789
	c0.252-0.183,0.604-0.126,0.788,0.126c2.064,2.843,2.894,6.019,2.276,8.714c-0.426,1.845-1.49,3.271-3.082,4.12
	C20.484,31.615,20.395,31.638,20.304,31.638"/>
<path fill="#FFFFFF" d="M3.695,31.762c-0.089,0-0.181-0.021-0.265-0.064c-1.591-0.852-2.656-2.277-3.079-4.121
	c-0.619-2.695,0.209-5.873,2.273-8.715c0.183-0.252,0.537-0.309,0.79-0.125c0.252,0.184,0.308,0.536,0.125,0.788
	c-1.845,2.54-2.625,5.457-2.087,7.799c0.349,1.517,1.217,2.685,2.511,3.378c0.276,0.146,0.379,0.486,0.231,0.764
	C4.091,31.653,3.896,31.762,3.695,31.762"/>
<path fill="#FFFFFF" d="M14.118,27.87l0.738-2.194c0.021-0.061,0-0.127-0.052-0.165l-1.971-1.462
	c-0.043-0.032-0.021-0.101,0.032-0.102l2.493-0.026c0.023,0,0.044-0.014,0.051-0.037l0.75-2.279c0.016-0.051,0.09-0.051,0.104,0
	l0.75,2.279c0.007,0.023,0.03,0.037,0.053,0.037l2.209,0.023c0.105,0.001,0.151,0.136,0.068,0.201l-1.714,1.363
	c-0.048,0.039-0.067,0.104-0.048,0.163l0.741,2.193c0.017,0.051-0.044,0.094-0.087,0.063l-2.002-1.406
	c-0.02-0.014-0.047-0.014-0.064,0l-1.967,1.412C14.16,27.966,14.1,27.925,14.118,27.87"/>
</svg>
