<svg xmlns="http://www.w3.org/2000/svg" xmlns:xlink="http://www.w3.org/1999/xlink" width="100" height="100" x="0" y="0" enable-background="new 0 0 100 100" version="1.1" viewBox="0 0 100 100" xml:space="preserve"><g id="图层_1" display="none"><path fill="#E71423" d="M80.093,50.207c0,18.354-14.933,33.287-33.287,33.287S13.521,68.563,13.521,50.207 c0-18.354,14.931-33.285,33.285-33.285c10.103,0,19.16,4.528,25.271,11.655l3.789-4.78c-7.191-7.905-17.558-12.875-29.06-12.875 c-21.661,0-39.285,17.624-39.285,39.285c0,21.663,17.624,39.287,39.285,39.287c21.663,0,39.287-17.624,39.287-39.287 c0-7.941-2.376-15.336-6.444-21.522l-3.965,5.001C78.482,38.558,80.093,44.196,80.093,50.207" display="inline"/><g display="inline" opacity=".6"><g><g><defs><rect id="SVGID_1_" width="46.708" height="61.163" x="43.811" y="10.921"/></defs><clipPath id="SVGID_2_"><use overflow="visible" xlink:href="#SVGID_1_"/></clipPath><path fill="#E71423" d="M89.382,11.57c-1.301-1.029-3.185-0.811-4.215,0.487l-9.302,11.738 l-3.789,4.782L43.812,64.245v7.84c0.017,0,0.034,0,0.052-0.001c0.895-0.02,1.734-0.436,2.291-1.136l29.529-37.264l3.965-5.001 L89.87,15.785C90.898,14.486,90.682,12.599,89.382,11.57" clip-path="url(#SVGID_2_)"/></g></g></g><path fill="#E71423" d="M43.708,64.375L24.299,41.813c-1.082-1.258-2.978-1.399-4.23-0.318 c-1.256,1.081-1.398,2.976-0.318,4.231l21.778,25.315c0.571,0.663,1.402,1.044,2.275,1.044h0.008v-7.84L43.708,64.375z" display="inline"/></g><g id="图层_2"><line x1="18.377" x2="42.728" y1="45.275" y2="71.648" fill="#E71423"/><line x1="18.377" x2="42.728" y1="45.275" y2="71.648" fill="none" stroke="#E71423" stroke-linecap="round" stroke-linejoin="round" stroke-miterlimit="10" stroke-width="4"/><line x1="87.979" x2="43.511" y1="14.493" y2="70.733" fill="#E71423"/><line x1="87.979" x2="43.511" y1="14.493" y2="70.733" fill="none" stroke="#E71423" stroke-linecap="round" stroke-linejoin="round" stroke-miterlimit="10" stroke-width="4"/><path fill="#E71423" d="M48.157,89.754c-21.67,0-39.301-17.631-39.301-39.302s17.631-39.3,39.301-39.3 c21.671,0,39.302,17.629,39.302,39.3c0,10.013-3.768,19.549-10.605,26.854c-0.581,0.621-1.556,0.655-2.177,0.071 c-0.624-0.581-0.655-1.556-0.073-2.178c6.303-6.732,9.774-15.521,9.774-24.748c0-19.97-16.248-36.22-36.221-36.22 c-19.971,0-36.219,16.25-36.219,36.22c0,19.972,16.248,36.22,36.219,36.22c5.867,0,11.694-1.436,16.853-4.148 c0.751-0.398,1.684-0.109,2.081,0.643c0.396,0.754,0.106,1.687-0.646,2.082C60.846,88.195,54.522,89.754,48.157,89.754"/></g></svg>